<svg width="30" height="30" viewBox="0 0 30 30" fill="none" xmlns="http://www.w3.org/2000/svg">
<path d="M21.6667 22.5V18H10V12H21.6667V7.5L30 15L21.6667 22.5ZM18.3333 0C19.2174 0 20.0652 0.31607 20.6904 0.87868C21.3155 1.44129 21.6667 2.20435 21.6667 3V6H18.3333V3H3.33333V27H18.3333V24H21.6667V27C21.6667 27.7956 21.3155 28.5587 20.6904 29.1213C20.0652 29.6839 19.2174 30 18.3333 30H3.33333C2.44928 30 1.60143 29.6839 0.976311 29.1213C0.351189 28.5587 0 27.7956 0 27V3C0 2.20435 0.351189 1.44129 0.976311 0.87868C1.60143 0.31607 2.44928 0 3.33333 0H18.3333Z" fill="#7C8192"/>
</svg>
