<svg width="30" height="25" viewBox="0 0 30 25" fill="none" xmlns="http://www.w3.org/2000/svg">
<path d="M29.4316 8.25521C29.6602 8.05338 30 8.24219 30 8.5612V21.875C30 23.6003 28.7402 25 27.1875 25H2.8125C1.25977 25 0 23.6003 0 21.875V8.56771C0 8.24219 0.333984 8.0599 0.568359 8.26172C1.88086 9.39453 3.62109 10.8333 9.59766 15.6576C10.834 16.6602 12.9199 18.7695 15 18.7565C17.0918 18.776 19.2188 16.6211 20.4082 15.6576C26.3848 10.8333 28.1191 9.38802 29.4316 8.25521ZM15 16.6667C16.3594 16.6927 18.3164 14.7656 19.3008 13.9714C27.0762 7.70182 27.668 7.15495 29.4609 5.59245C29.8008 5.29948 30 4.84375 30 4.36198V3.125C30 1.39974 28.7402 0 27.1875 0H2.8125C1.25977 0 0 1.39974 0 3.125V4.36198C0 4.84375 0.199219 5.29297 0.539062 5.59245C2.33203 7.14844 2.92383 7.70182 10.6992 13.9714C11.6836 14.7656 13.6406 16.6927 15 16.6667Z" fill="#7C8192"/>
</svg>
